<svg width="62" height="20" viewBox="0 0 62 20" fill="none" xmlns="http://www.w3.org/2000/svg">
<path d="M14.5115 11.3095C14.5952 12.0238 14.8882 12.5794 15.3906 12.9762C15.8929 13.373 16.4998 13.5714 17.2114 13.5714C17.8393 13.5714 18.3625 13.4524 18.7811 13.2143C19.2136 12.963 19.5904 12.6521 19.9113 12.2817L21.7112 13.5714C21.1252 14.2593 20.4694 14.7487 19.7439 15.0397C19.0183 15.3307 18.2579 15.4762 17.4626 15.4762C16.7091 15.4762 15.9975 15.3571 15.3278 15.119C14.658 14.881 14.079 14.5436 13.5906 14.1071C13.1023 13.6706 12.7116 13.1481 12.4186 12.5397C12.1395 11.918 12 11.2302 12 10.4762C12 9.72222 12.1395 9.041 12.4186 8.43254C12.7116 7.81085 13.1023 7.28174 13.5906 6.84524C14.079 6.40873 14.658 6.07143 15.3278 5.83333C15.9975 5.59524 16.7091 5.47619 17.4626 5.47619C18.1602 5.47619 18.7951 5.59524 19.3671 5.83333C19.9531 6.0582 20.4485 6.38889 20.8531 6.8254C21.2717 7.2619 21.5926 7.80423 21.8159 8.45238C22.0531 9.0873 22.1717 9.82143 22.1717 10.6548V11.3095H14.5115ZM19.6601 9.52381C19.6462 8.82275 19.416 8.27381 18.9695 7.87698C18.523 7.46693 17.9021 7.2619 17.1068 7.2619C16.3533 7.2619 15.7533 7.46693 15.3068 7.87698C14.8743 8.28704 14.6092 8.83598 14.5115 9.52381H19.6601Z" fill="#F9F9F9"/>
<path d="M29.7526 13.9286H29.6899C29.3271 14.4709 28.8666 14.8677 28.3085 15.119C27.7504 15.3571 27.1365 15.4762 26.4667 15.4762C26.0063 15.4762 25.5528 15.4167 25.1063 15.2976C24.6738 15.1786 24.2831 15 23.9343 14.7619C23.5994 14.5238 23.3273 14.2262 23.1181 13.869C22.9088 13.5119 22.8041 13.0952 22.8041 12.619C22.8041 12.1032 22.9018 11.6667 23.0971 11.3095C23.2925 10.9392 23.5506 10.6349 23.8715 10.3968C24.2064 10.1455 24.5901 9.94709 25.0226 9.80159C25.4552 9.65608 25.9017 9.55026 26.3621 9.48413C26.8365 9.40476 27.3109 9.35846 27.7853 9.34524C28.2597 9.31878 28.7062 9.30555 29.1248 9.30555H29.7526V9.04762C29.7526 8.45238 29.5364 8.00926 29.1038 7.71825C28.6713 7.41402 28.1202 7.2619 27.4504 7.2619C26.9202 7.2619 26.4249 7.3545 25.9644 7.53968C25.504 7.71164 25.1063 7.94973 24.7715 8.25397L23.4529 7.00397C24.011 6.46164 24.6598 6.07143 25.3993 5.83333C26.1528 5.59524 26.9272 5.47619 27.7225 5.47619C28.4341 5.47619 29.0341 5.55556 29.5224 5.71429C30.0108 5.85979 30.4154 6.05159 30.7363 6.28968C31.0572 6.52778 31.3014 6.80555 31.4689 7.12301C31.6502 7.42725 31.7758 7.73809 31.8456 8.05555C31.9293 8.37301 31.9781 8.68386 31.9921 8.98809C32.006 9.2791 32.013 9.53704 32.013 9.7619V15.2381H29.7526V13.9286ZM29.6061 10.9722H29.0829C28.7341 10.9722 28.3434 10.9854 27.9109 11.0119C27.4783 11.0384 27.0667 11.1045 26.676 11.2103C26.2993 11.3029 25.9784 11.4484 25.7133 11.6468C25.4482 11.832 25.3156 12.0966 25.3156 12.4405C25.3156 12.6653 25.3645 12.8571 25.4621 13.0159C25.5738 13.1614 25.7133 13.287 25.8807 13.3929C26.0482 13.4987 26.2365 13.578 26.4458 13.631C26.6551 13.6706 26.8644 13.6905 27.0737 13.6905C27.9388 13.6905 28.5736 13.4987 28.9783 13.1151C29.3968 12.7183 29.6061 12.1825 29.6061 11.5079V10.9722Z" fill="#F9F9F9"/>
<path d="M39.0266 8.35317C38.5383 7.70503 37.8825 7.38095 37.0593 7.38095C36.7244 7.38095 36.3965 7.46032 36.0756 7.61905C35.7547 7.77778 35.5942 8.03571 35.5942 8.39286C35.5942 8.68386 35.7268 8.8955 35.9919 9.02778C36.257 9.16005 36.5919 9.27249 36.9965 9.36508C37.4011 9.45767 37.8337 9.55688 38.2941 9.6627C38.7685 9.75529 39.208 9.90741 39.6126 10.119C40.0173 10.3175 40.3522 10.5952 40.6173 10.9524C40.8824 11.3095 41.0149 11.7989 41.0149 12.4206C41.0149 12.9894 40.8824 13.4722 40.6173 13.869C40.3661 14.2526 40.0312 14.5635 39.6126 14.8016C39.208 15.0397 38.7476 15.2116 38.2313 15.3175C37.7151 15.4233 37.1988 15.4762 36.6825 15.4762C35.9012 15.4762 35.1826 15.3704 34.5268 15.1587C33.871 14.9471 33.285 14.5635 32.7688 14.0079L34.4431 12.5198C34.764 12.8638 35.1059 13.1481 35.4686 13.373C35.8454 13.5847 36.2988 13.6905 36.829 13.6905C37.0104 13.6905 37.1988 13.6706 37.3941 13.631C37.5895 13.5913 37.7709 13.5251 37.9383 13.4325C38.1057 13.3399 38.2383 13.2275 38.336 13.0952C38.4476 12.9497 38.5034 12.7844 38.5034 12.5992C38.5034 12.2685 38.3708 12.0238 38.1057 11.8651C37.8406 11.7063 37.5058 11.5807 37.1011 11.4881C36.6965 11.3823 36.257 11.2897 35.7826 11.2103C35.3221 11.1177 34.8896 10.9788 34.485 10.7936C34.0803 10.5952 33.7455 10.3241 33.4804 9.98016C33.2153 9.63624 33.0827 9.16005 33.0827 8.55159C33.0827 8.02249 33.1943 7.56614 33.4176 7.18254C33.6548 6.78571 33.9617 6.46164 34.3385 6.21032C34.7152 5.95899 35.1477 5.77381 35.6361 5.65476C36.1244 5.53571 36.6198 5.47619 37.1221 5.47619C37.7918 5.47619 38.4546 5.58862 39.1103 5.81349C39.7661 6.02513 40.2963 6.3955 40.701 6.9246L39.0266 8.35317Z" fill="#F9F9F9"/>
<path d="M41.9638 5.71429H44.4753V15.2381H41.9638V5.71429ZM41.608 2.48016C41.608 2.09656 41.7545 1.76587 42.0475 1.48809C42.3544 1.19709 42.7381 1.05159 43.1986 1.05159C43.659 1.05159 44.0427 1.19048 44.3497 1.46825C44.6706 1.7328 44.8311 2.07011 44.8311 2.48016C44.8311 2.89021 44.6706 3.23413 44.3497 3.5119C44.0427 3.77645 43.659 3.90873 43.1986 3.90873C42.7381 3.90873 42.3544 3.76984 42.0475 3.49206C41.7545 3.20106 41.608 2.86376 41.608 2.48016Z" fill="#F9F9F9"/>
<path d="M47.2121 7.73809H45.1401V5.71429H47.2121V4.36508C47.2121 3.7037 47.261 3.10846 47.3586 2.57936C47.4563 2.03704 47.6377 1.57407 47.9028 1.19048C48.1818 0.806878 48.5655 0.515872 49.0539 0.31746C49.5423 0.10582 50.1771 0 50.9585 0C51.5305 0 52.0607 0.0462961 52.5491 0.138888L52.3817 2.1627C52.2003 2.12301 52.0259 2.08995 51.8584 2.06349C51.691 2.03704 51.5166 2.02381 51.3352 2.02381C50.9864 2.02381 50.7073 2.07672 50.498 2.18254C50.2887 2.28836 50.1213 2.43386 49.9957 2.61905C49.8841 2.791 49.8074 2.99603 49.7655 3.23413C49.7376 3.47222 49.7236 3.72354 49.7236 3.98809V5.71429H52.0468V7.73809H49.7236V15.2381H47.2121V7.73809Z" fill="#F9F9F9"/>
<path d="M51.2633 5.71429H54.0259L56.8305 12.3214H56.8723L59.3838 5.71429H62L57.249 17.2817C57.0676 17.7315 56.8653 18.1217 56.6421 18.4524C56.4328 18.7963 56.1816 19.0807 55.8886 19.3056C55.5956 19.5436 55.2468 19.7156 54.8422 19.8214C54.4515 19.9405 53.9771 20 53.419 20C52.7632 20 52.1214 19.9206 51.4935 19.7619L51.8074 17.619C52.0028 17.6852 52.2051 17.7381 52.4144 17.7778C52.6376 17.8307 52.8609 17.8571 53.0841 17.8571C53.3911 17.8571 53.6492 17.8307 53.8585 17.7778C54.0678 17.7249 54.2422 17.6389 54.3817 17.5198C54.5352 17.414 54.6608 17.2685 54.7584 17.0833C54.8561 16.9114 54.9608 16.6997 55.0724 16.4484L55.5538 15.3175L51.2633 5.71429Z" fill="#F9F9F9"/>
</svg>
